<svg width="16" height="16" viewBox="0 0 16 16" fill="none" xmlns="http://www.w3.org/2000/svg">
<g id="icon" clip-path="url(#clip0_0_5)">
<path id="Vector" d="M8 16C12.4183 16 16 12.4183 16 8C16 3.58172 12.4183 0 8 0C3.58172 0 0 3.58172 0 8C0 12.4183 3.58172 16 8 16Z" fill="#FF492C"/>
<path id="Vector_2" d="M11.4627 6.12874H10.0963C10.1331 5.91434 10.2659 5.79434 10.5347 5.65834L10.7859 5.53034C11.2355 5.29994 11.4755 5.03914 11.4755 4.61354C11.4755 4.34634 11.3715 4.13514 11.1651 3.98314C10.9587 3.83114 10.7155 3.75594 10.4307 3.75594C10.2104 3.75335 9.9941 3.81507 9.80832 3.93354C9.62112 4.04874 9.48192 4.19754 9.39552 4.38314L9.79072 4.77994C9.94432 4.46954 10.1667 4.31754 10.4595 4.31754C10.7075 4.31754 10.8595 4.44554 10.8595 4.62314C10.8595 4.77194 10.7859 4.89514 10.5011 5.03914L10.3395 5.11754C9.98912 5.29514 9.74592 5.49834 9.60512 5.72874C9.46432 5.95914 9.39552 6.24874 9.39552 6.59914V6.69514H11.4627V6.12874ZM11.2803 7.34794H9.01792L7.88672 9.30634H10.1491L11.2803 11.2663L12.4115 9.30634L11.2803 7.34794Z" fill="white"/>
<path id="Vector_3" d="M8.08194 10.6137C6.64194 10.6137 5.46914 9.44089 5.46914 8.00089C5.46914 6.56089 6.64194 5.38809 8.08194 5.38809L8.97634 3.51769C8.68181 3.45912 8.38224 3.42964 8.08194 3.42969C5.55714 3.42969 3.51074 5.47609 3.51074 8.00089C3.51074 10.5257 5.55714 12.5721 8.08194 12.5721C9.0495 12.5739 9.99235 12.2667 10.7731 11.6953L9.78434 9.98009C9.31129 10.3887 8.70705 10.6136 8.08194 10.6137Z" fill="white"/>
</g>
<defs>
<clipPath id="clip0_0_5">
<rect width="16" height="16" fill="white"/>
</clipPath>
</defs>
</svg>
