<svg width="12" height="12" viewBox="0 0 12 12" fill="none" xmlns="http://www.w3.org/2000/svg">
<path opacity="0.3" d="M1.16669 9.8041C2.96869 10.3454 4.43069 10.3908 5.62602 9.16744C6.34669 8.4441 6.34669 7.27077 5.62602 6.54676C4.90535 5.82276 3.74202 5.8121 3.01535 6.54676C1.83335 7.74144 2.86535 8.8761 1.16669 9.8041Z" fill="#888888"/>
<path d="M4.63733 6.02933L9.02267 1.644C9.43667 1.23 10.1087 1.23 10.5227 1.644C10.9367 2.058 10.9367 2.73 10.5227 3.144L6.13733 7.52934" stroke="#888888" stroke-width="1.25" stroke-linecap="round" stroke-linejoin="round"/>
<path d="M1.16669 9.8041C2.96869 10.3454 4.43069 10.3908 5.62602 9.16744C6.34669 8.4441 6.34669 7.27077 5.62602 6.54676C4.90535 5.82276 3.74202 5.8121 3.01535 6.54676C1.83335 7.74144 2.86535 8.8761 1.16669 9.8041Z" stroke="#888888" stroke-width="1.25" stroke-linecap="round" stroke-linejoin="round"/>
</svg>
