<svg width="12" height="12" viewBox="0 0 12 12" fill="none" xmlns="http://www.w3.org/2000/svg">
<path opacity="0.3" d="M9.07002 3.16675L8.73269 9.56675C8.69536 10.2801 8.11009 10.8334 7.40142 10.8334H4.59806C3.88872 10.8334 3.30405 10.2801 3.26672 9.56675L2.92938 3.16675" fill="#888888"/>
<path d="M1.83331 3.16675H10.1666" stroke="#888888" stroke-width="1.25" stroke-linecap="round" stroke-linejoin="round"/>
<path d="M4.5 3.16675V1.83341C4.5 1.46675 4.79867 1.16675 5.16667 1.16675H6.83333C7.20133 1.16675 7.5 1.46675 7.5 1.83341V3.16675" stroke="#888888" stroke-width="1.25" stroke-linecap="round" stroke-linejoin="round"/>
<path d="M9.23712 3.16675L8.89998 9.56675C8.86265 10.2801 8.27732 10.8334 7.56865 10.8334H4.43196C3.72262 10.8334 3.13796 10.2801 3.10063 9.56675L2.76349 3.16675" stroke="#888888" stroke-width="1.25" stroke-linecap="round" stroke-linejoin="round"/>
</svg>
